<?xml version="1.0" encoding="UTF-8"?><svg id="Layer_1" xmlns="http://www.w3.org/2000/svg" xmlns:xlink="http://www.w3.org/1999/xlink" viewBox="0 0 481.77 512"><defs><style>.cls-1{fill:#f1ebda;}.cls-2{fill:#b47445;}.cls-3{fill:#dfd3bb;}.cls-4{fill:#b7a88c;}.cls-5{fill:#cc9166;}.cls-6,.cls-7,.cls-8,.cls-9{fill:#a96e42;}.cls-10{fill:#7e8a63;}.cls-11{fill:#bfb194;}.cls-12{fill:#cf956a;}.cls-13{fill:#a7b28d;}.cls-14{fill:#c2b191;}.cls-15{fill:#cda17c;}.cls-16{fill:#cabfa6;}.cls-17{fill:#c9bba1;}.cls-18{fill:#784c28;}.cls-19{letter-spacing:-.07em;}.cls-19,.cls-20,.cls-21,.cls-22,.cls-23{fill:#5e6c49;}.cls-24{fill:#a69274;}.cls-25{fill:#ccbda2;}.cls-26{fill:url(#linear-gradient-2);}.cls-27{fill:#a89372;}.cls-28{fill:#91603a;}.cls-29{font-family:Bogart-Extrabold, Bogart;font-size:76.72px;font-weight:700;}.cls-30{fill:#ece5d2;}.cls-31{fill:#e6dbc4;}.cls-32{fill:#ede8dc;}.cls-20{letter-spacing:-.02em;}.cls-33{fill:#e7dcc6;}.cls-34{fill:#b3a282;}.cls-21{letter-spacing:-.01em;}.cls-35{fill:#b5a281;}.cls-36{fill:#f5f0e3;}.cls-22,.cls-9{letter-spacing:0em;}.cls-37{fill:url(#linear-gradient);}.cls-38{fill:#4b5435;}.cls-39{fill:#cdc2af;}.cls-40{fill:#828b67;}.cls-23{letter-spacing:0em;}.cls-41{fill:#f6f2e5;}.cls-42{fill:#f1eee3;}.cls-43{fill:#c78e62;}.cls-44{fill:#7c4b28;}.cls-45{fill:#717c5a;}.cls-46{fill:#a0ab84;}.cls-47{fill:#b5a586;}.cls-48{fill:#d5c7af;}.cls-49{fill:#a99374;}.cls-50{fill:#b09e7f;}.cls-51{fill:#b3a182;}.cls-52{fill:#ece4d1;}.cls-53{fill:#a8ad8d;}.cls-54{fill:#cd976f;}.cls-55{fill:#e9dfcb;}.cls-56{fill:#dcd2c0;}.cls-57{fill:#b6a587;}.cls-58{fill:#a8b18d;}.cls-59{fill:#e8dfca;}.cls-60{fill:#f3eedf;}.cls-61{fill:#f3ede3;}.cls-7{letter-spacing:0em;}.cls-62{fill:#cacfb7;}.cls-63{fill:#d8cfbd;}.cls-64{fill:#f2ecdc;}.cls-65{fill:#d39c77;}.cls-66{fill:#c3b397;}.cls-67{fill:#eae1d1;}.cls-68{fill:#9f8867;}.cls-69{fill:#c3a983;}.cls-70{fill:#536040;}.cls-71{fill:#8d572f;}.cls-72{fill:#c9bba5;}.cls-73{fill:#d1c1a3;}.cls-74{fill:#cabca5;}.cls-75{fill:#f1ebdb;}.cls-76{fill:#f6f3e7;}.cls-8{letter-spacing:0em;}.cls-77{fill:#3d492f;}.cls-78{fill:#7e502c;}.cls-79{fill:#c6baa4;}.cls-80{fill:#ad987a;}.cls-81{fill:#b7a383;}.cls-82{fill:#9b8662;}.cls-83{fill:#f1ead9;}.cls-84{fill:#cec1a5;}.cls-85{fill:#f7f4e8;}.cls-86{fill:#586644;}.cls-87{fill:#a5ac8b;}.cls-88{fill:#774927;}.cls-89{fill:#5e6948;}.cls-90{fill:#f5efe1;}.cls-91{fill:#eee8d5;}.cls-92{fill:#a79171;}.cls-93{fill:#b4a382;}.cls-94{fill:#f4efe0;}.cls-95{fill:#ede6d2;}.cls-96{fill:#ebe2cf;}.cls-97{fill:#b8aa90;}.cls-98{fill:#e2d6c1;}.cls-99{fill:#a89879;}.cls-100{fill:#f4f1e2;}.cls-101{fill:#b4a385;}.cls-102{fill:#f6f5ec;}.cls-103{fill:#e6dac3;}.cls-104{fill:#f0e9d7;}.cls-105{fill:#c3b599;}.cls-106{fill:#ece4d0;}.cls-107{fill:#9a8e6d;}.cls-108{fill:#b8a588;}.cls-109{fill:#efebdf;}</style><linearGradient id="linear-gradient" x1="327.19" y1="-93.47" x2="638.55" y2="304.12" gradientTransform="translate(-90.39 128.89) scale(.67)" gradientUnits="userSpaceOnUse"><stop offset="0" stop-color="#f8f6eb"/><stop offset="1" stop-color="#e2d6be"/></linearGradient><linearGradient id="linear-gradient-2" x1="429.7" y1="60.81" x2="545.98" y2="236.88" gradientTransform="translate(-90.39 128.89) scale(.67)" gradientUnits="userSpaceOnUse"><stop offset="0" stop-color="#f7f7f0"/><stop offset="1" stop-color="#ddd3be"/></linearGradient></defs><g id="Generative_Object"><path class="cls-70" d="M241.65.03l-.13,5.88-.78.09c-3.06.37-6.48,2.3-6.49,5.8l-.1,30.5-.09,9.57c-.03,3.63,2.35,6.73,5.9,7.17.48.06.83.19,1.19.13l.26,11.67c-5.19.16-9.71-1.81-13.41-5.72-4.7-6.28-5.21-14.72.25-21.09-.28-.64.36-1.01.28-1.16l-.5-1.03-.1-3.35-30.3.13-.16,3.1c-.19,3.6,1.68,4.33,2.67,7.38,2.28,7-.12,14.35-6,18.69-5.91,4.36-14.58,4.05-20.21-1.26-1.26-1.18-2.01-2.73-3.37-3.45-2.72-5.99-3.25-12.99,1.42-18.55.78-.93.36-1.9.13-2.57l.17-3.41-30.37.12c-1.05,0-.85,2.9.21,3.02-.64-.03-1.4.82-1,1.58l3.18,6,.7,5.7c-.29,6.64-4.62,12.64-10.34,14.73-6.69,2.44-13.77.56-18.02-4.49-4.67-5.53-5.63-13.65-1.23-19.81.97-1.35,1.16-1.85.93-3.53-.13-.97.41-2.13-.33-3.54l-12.75.51c-10.69,1.89-18.23,11.46-18.21,22.37l.03,20.6c0,.41-.12,1.45.35,1.84.35.29.96-.33,1.68.01-2.12,4.22,2.01,4.12,2.07,7.41-1.24,0-2.42-.22-4.15.27l.04,233.34c0,6.98,4.31,13.22,9.05,17.05-.35.23-1.01.53-1,.75s.57.61.85.93l12.36,14.3c1.07,1.24,1.35,2.09.76,3.69-20.38,1.66-37.23-14.09-36.63-34.74l.07-268.72c0-17.38,14.4-31.79,31.21-31.95l14.64-.13.34-15.32c.93-6.58,6.67-10.7,12.84-10.48,5.77.21,11.54,4.79,11.63,11.1l.2,14.8,30.83-.04.04-12.14c.02-7.25,4.28-13.06,11.45-13.75,6.42-.62,13.26,4.03,13.44,11.16l.37,14.75,30.57-.07.05-12.11c.03-7.87,5.52-14.17,13.51-13.78ZM122.45,43.05l.27,11.47c.08,3.37,4.41,4.79,7.21,4.36,3.38-.51,5.78-3.27,5.77-7.07l-.19-40.11c-.02-3.82-4.17-5.87-7.1-5.62-3.29.28-5.96,2.68-5.96,6.43v30.54ZM178.16,34.2l-.02,12.77v5.58c-.01,3.96,3.39,6.75,6.81,6.53,3.85-.25,6.52-3.15,6.52-7.25V13.86c.01-4.11-1.76-7.44-6.09-7.81-4.27-.36-7.27,2.9-7.27,7.1l.04,21.05Z"/><path class="cls-88" d="M241.14,361.49l.23-14.8h75.99s4.78-.66,4.78-.66c.6.5.97.78,1.97.78l18.78-.03,25.28-.13,9.73-.18c7.66-.98,13.95-5.7,17.4-12.49,2.48-4.88,2.4-10.02,2.39-15.13v-11.35s-.2-26.6-.2-26.6l.2-5.61.06-182.65-.43-5.5.26-3.3.09-20.76c.02-5.07-1.14-10.2-3.83-14.53-.3-1.68,1.51-1.46,1.16-.36l10.16,12.01c1.48,1.75,3.97,4.63,6.17,2.87.67-7.06-1.11-14.38-4.36-20.32.29-.34.56-.32.8-.38,3.16,5.46,4.63,11.29,4.62,18.32l-.31,269.99c-.02,17.11-15.62,30.7-31.87,30.71l-139.09.1Z"/><path class="cls-44" d="M407.78,42.37c-.24.06-.51.03-.8.38,3.24,5.95,5.03,13.26,4.36,20.32-2.2,1.76-4.69-1.12-6.17-2.87l-10.16-12.01c.35-1.1-1.46-1.32-1.16.36-3.52-5.66-9.95-9.88-16.94-9.95l-11.36-.11c-.55,1.48-.2,2.55-.18,3.64.11,5.66,4.67,5.35,3.87,7.26-1.1.74-.66,1.87-.53,3.09.8,7.55-3.12,14.32-9.45,17.03-6.86,2.94-14.33,1-19.4-4.3-8.39-15.67,1.36-19.55.67-23.6-.12-.7.34-2.45-.49-2.97l-30.5-.13c-.67,1.36.17,2.84.05,3.66-.17,1.08-.62,1.79.42,3.18l3.38,4.51c-.8.02-.96.43-.76,1.38,1.48,8.17-3.21,16.15-11.08,18.84-5.65,1.93-11.94.07-16.41-3.58-5.71-6.03-6.6-15.59-.93-22.59l.05-2.16c.02-.94.16-1.94-.27-3.19l-30.54.04-.08,3.37c-.03,1.14-.3,1.99.73,3.31,3.36,4.31.38,5.69,2.53,5.06.92,4.97.24,10.07-3.12,14.38-2.83,3.62-7.12,5.98-12.08,6.13l-.26-11.67c3.09-.5,6.29-3.09,6.28-6.64l-.06-40.55c0-3.42-2.68-5.62-5.85-6.08l.13-5.88c6.38.31,11.56,5.87,11.62,12.43l.13,13.51h30.66s.22-14.77.22-14.77c.1-6.7,6.61-11.47,12.83-11.2,6.64.3,11.93,5.64,12.03,12.44l.19,13.48,30.85.02.2-13.27c.1-6.94,5.37-12.28,12.14-12.6s12.64,5.01,12.68,11.95l.08,13.96,12.91-.09c13.01-.09,23.36,5.71,29.59,16.47ZM290.07,37.69l-.11,13.3c-.03,4.03,1.93,7.92,5.79,8.21,4.34.32,7.74-2.76,7.72-7.35l-.14-33.75-.17-6.91c-.06-2.6-2.91-4.82-5.58-5.12-4.35-.49-7.54,2.93-7.54,7.1l.02,24.53ZM346.24,39.77l.4,14.17c.1,3.45,3.96,5.53,7,5.06,3.38-.52,5.8-3.37,5.81-7.15l.07-37.99c0-1.95-.11-3.36-1.1-4.75-1.82-2.55-4.58-3.63-7.4-2.81-3.06.89-4.65,3.54-4.66,6.87l-.02,23.31-.1,3.29Z"/><path class="cls-77" d="M241.36,346.69l-.23,14.8-134.05-.05c.59-1.61.31-2.45-.76-3.69l-12.36-14.3c-.28-.32-.83-.71-.85-.93s.65-.52,1-.75c3.49,2.82,8.18,4.87,13.19,4.88l134.06.05Z"/><path class="cls-37" d="M89.17,91.1l152.25.02h156c.53,0,.25,1.53.33,1.52l-.06,182.65-.2,5.61c-.64-.28-1.17-.03-1.15.53-.59,3.36-1.7,6.41-2.89,9.26-1.99.31-3.41,3.45-7.49,5.18l-2.61,3.67-.83,2.71c-.25.82-2.14.51-3.05.47-1.17,1.29-2.65,2.42-4.58,2.4.13.82-.52,2.96-1.78,2.75-1.51-.25-2.09-.4-3.03.57-.81.84-1.43,1.35-1.21,2.98-3.18-.57-2.78,3.02-6.47,4.84-.54,4.61-7.14,9.91-7.36,9.93-.89.07-1.84-.07-3.3-.83.49,1.32-.1,1.62-.64,2.18-.86.9-1.5,1.68-2.7.74l-3.92,7.13c1.62.59,1.25,2.45.95,3.46-7.56,4.06-15.37,6.06-23.29,7.15l-4.78.66h-75.99s-134.06-.05-134.06-.05c-5.01,0-9.7-2.06-13.19-4.88-4.75-3.83-9.05-10.07-9.05-17.05l-.04-233.34c1.73-.49,2.91-.27,4.15-.27ZM104.74,148.36v32.44s.15,142.38.15,142.38l136.23.07c2.85,0,5.72,1,8.71-.4,2.23.71,5.04.92,7.19.1.84.54,2.49,1.2,3.32-.23,10.84,1.13,21.74.64,33.13.56,2.33-.72,4.62-.1,6.95-.08l27,.19c1.84.01,3.26.05,5.4-.45l6.36.32.25-41.64h38.53s.26-16.9.26-16.9l-.14-42.06-.17-110.63h-136.47s-136.54.06-136.54.06l-.16,36.27ZM361.94,312.3c.8-.3.96-1.16,1.04-2.04,2.52-1.16,4.44-3.32,4.09-6.08,3.43-1.4,4.9-3.24,4.18-6.54l-8.21,1.36c-4.66.77-11.28,7.88-12.27,13.2l-2.55,13.68c2.43-1.88,2.02-4.62,2.12-6.8.91-.71,2.71-.71,3.56-1.09.96-1.08,2.13-2.73,3.29-3.4l.61-1.78c.24-.69,2.63.05,4.13-.52Z"/><path class="cls-10" d="M172.12,41.99c.24.67.66,1.63-.13,2.57-4.67,5.56-4.13,12.56-1.42,18.55,3.13,6.9,11.66,12.78,20.49,9.91,9.81-3.18,15.26-13.63,10.87-23.12-.19-.41-.6-1.18-.89-1.3-.27-.11-.63.36-.88.53-.99-3.05-2.86-3.78-2.67-7.38l30.56.11.5,1.03c.08.16-.56.52-.28,1.16-5.46,6.36-4.96,14.8-.25,21.09,2.17,5.19,7.86,8.39,13.37,8.64l-.03,10.04-104.7-.02-49.55-.09c-.72-.34-1.33.28-1.68-.01-.47-.39-.35-1.44-.35-1.84.55.37,1.35.24,1.43-.31.09-.66.25-1.44.27-2.08l.8-20.04c1.26-9.92,9.87-16.51,19.63-17.47l9.14-.03c.23,1.67.03,2.17-.93,3.53-4.39,6.16-3.43,14.27,1.23,19.81-.63.11-.89.78-.68.96l.83.73c4.05,3.56,7.06,6.73,13.32,6.64,5.81-.09,11.06-2.69,14.27-7.12,3.43-4.74,3.83-11.11,1.44-16.38-.33-.73-1-.95-1.52-.77l-3.18-6c-.4-.76.36-1.61,1-1.58,3.62.47,7.43-.03,11.22.02l18.77.25Z"/><path class="cls-86" d="M241.36,83.8l.06,7.32-152.25-.02c-.06-3.29-4.18-3.19-2.07-7.41l49.55.09,104.7.02Z"/><path class="cls-4" d="M122.45,43.05c2.02.14,3.82.04,6.33-.55l-.18-33.75c-.51-.83-.52-1.77-.19-2.66,2.94-.25,7.09,1.8,7.1,5.62l.19,40.11c.02,3.79-2.38,6.56-5.77,7.07-2.79.42-7.13-1-7.21-4.36l-.27-11.47Z"/><path class="cls-11" d="M178.14,46.97c1.94-.11,3.43-1.8,6.33-1.83l.15-11.88.02-23.98c-.72-.33-.78-.82-.84-1.13s.12-1.14,1.1-.77c.32.12.53-1.01.49-1.33,4.33.36,6.1,3.69,6.1,7.81v37.97c-.01,4.09-2.68,7-6.53,7.25-3.42.22-6.83-2.57-6.82-6.53v-5.58Z"/><path class="cls-35" d="M241.16,59.18c-.37.06-.71-.07-1.19-.13-.07-.4.53-1.16.73-1.47l.14-15.54.27-19.57c1.35-.54,3.35-.97,4.23-1.72.84-2.98-.8-5.75,2.04-8.75l.06,40.55c0,3.55-3.19,6.13-6.28,6.64Z"/><path class="cls-109" d="M240.75,6.01c.86,5.42.44,10.98.36,16.46l-.27,19.57c-2.37-.29-4.61-.41-6.68.28l.1-30.5c.01-3.5,3.43-5.43,6.49-5.8Z"/><path class="cls-32" d="M128.4,6.09c-.32.89-.31,1.83.19,2.66l.18,33.75c-2.5.59-4.31.69-6.33.55V12.51c0-3.74,2.67-6.15,5.95-6.43Z"/><path class="cls-42" d="M185.39,6.05c.04.32-.18,1.45-.49,1.33-.97-.37-1.16.45-1.1.77s.13.8.84,1.13l-.02,23.98c-.37-.16-1.03,1.06-1.44,1.06l-5.02-.12-.04-21.05c0-4.2,2.99-7.46,7.27-7.1Z"/><path class="cls-46" d="M116.35,41.9l-9.14.03c-9.75.96-18.37,7.55-19.63,17.47l-.8,20.04c-.03.64-.18,1.42-.27,2.08-.08.55-.88.68-1.43.31l-.03-20.6c-.01-10.91,7.53-20.47,18.21-22.37l12.75-.51c.73,1.41.19,2.57.33,3.54Z"/><path class="cls-53" d="M170.58,63.1c1.37.72,2.12,2.27,3.37,3.45,5.64,5.31,14.31,5.63,20.21,1.26,5.88-4.34,8.28-11.69,6-18.69.25-.17.62-.63.88-.53.29.12.7.89.89,1.3,4.39,9.49-1.06,19.94-10.87,23.12-8.83,2.86-17.36-3.01-20.49-9.91Z"/><path class="cls-87" d="M116.65,65.23c4.26,5.05,11.34,6.93,18.02,4.49,5.71-2.08,10.05-8.09,10.34-14.73l-.7-5.7c.52-.18,1.19.05,1.52.77,2.38,5.27,1.98,11.64-1.44,16.38-3.21,4.44-8.46,7.04-14.27,7.12-6.26.09-9.27-3.08-13.32-6.64l-.83-.73c-.21-.19.05-.85.68-.96Z"/><path class="cls-15" d="M241.39,73.76c-5.52-.24-11.2-3.45-13.37-8.64,3.69,3.91,8.21,5.88,13.41,5.72s9.25-2.51,12.08-6.13c3.36-4.3,4.04-9.41,3.12-14.38l.4-1.86c2.69,5.89,3.1,13.12-1.22,18.46-3.67,4.54-9.06,7.06-14.42,6.82Z"/><path class="cls-17" d="M240.84,42.03l-.14,15.54c-.2.31-.8,1.07-.73,1.47-3.55-.44-5.94-3.53-5.9-7.17l.09-9.57c2.08-.69,4.31-.57,6.68-.28Z"/><polygon class="cls-13" points="228.05 41.85 197.5 41.74 197.66 38.64 227.96 38.5 228.05 41.85"/><path class="cls-58" d="M172.12,41.99l-18.77-.25c-3.8-.05-7.61.45-11.22-.02-1.06-.13-1.26-3.02-.21-3.02l30.37-.12-.17,3.41Z"/><path class="cls-56" d="M178.14,46.97l.02-12.77,5.02.12c.41,0,1.07-1.22,1.44-1.06l-.15,11.88c-2.89.03-4.39,1.72-6.33,1.83Z"/><path class="cls-72" d="M247.38,11.99c-2.84,3-1.2,5.77-2.04,8.75-.88.75-2.88,1.18-4.23,1.72.08-5.48.5-11.03-.36-16.46l.78-.09c3.17.46,5.85,2.66,5.85,6.08Z"/><path class="cls-2" d="M284.26,41.75l-.05,2.16c-5.67,6.99-4.78,16.55.93,22.59,4.7,8.23,15.74,9.35,23.71,3.32,6.17-4.68,7.43-13.05,4.53-19.96l-3.38-4.51c-1.04-1.39-.59-2.1-.42-3.18l30.94-.56c.69,4.05-9.06,7.94-.67,23.6.93,1.74,2.15,3.73,3.78,4.88,7.54,5.3,15.82,4.85,22.71-1.63,4.98-4.69,5.92-13.01,2.9-19.06.8-1.91-3.76-1.6-3.87-7.26,8.93-.96,16.2-.68,23.51,5.07,5.32,4.19,7.26,10.62,7.5,16.66.57-.86.9-.89,1.3-.78l-.09,20.76-11.59-.21-14.71-.11-32.45.11-35.4.09-42.49.04-19.58.04.03-10.04c5.37.24,10.75-2.28,14.42-6.82,4.32-5.35,3.9-12.57,1.22-18.46l-.4,1.86c-2.15.63.83-.75-2.53-5.06-1.03-1.32-.76-2.17-.73-3.31l30.9-.22Z"/><path class="cls-71" d="M397.58,83.83l-.26,3.3.43,5.5c-.08.02.2-1.52-.33-1.52h-156s-.06-7.31-.06-7.31l19.58-.04,42.49-.04,35.4-.09,32.45-.11,14.71.11,11.59.21Z"/><path class="cls-82" d="M397.48,280.89l.19,26.6c-.8.77-2.38.63-3.34.81-1.44,2.12-3.91,3.6-6.12,5.31-.94.73-1.08,3.3-2.74,3.15-.59-.05-1.65-.15-1.99.38l-1.14,1.8c-1.13,1.79-2.93,3.9-3.82,3.69-5.66-1.36-6.36,5.36-12.54,9.46-.31.12-.94.01-1.13.49l-.65,1.63c-.29.73-1.27,1.32-1.76,1.45-.92.23-1.09-1.03-1.43-1.39.43,1.44.91,3.33-.83,3.95-1.24.45-2,1.56-2.64,2.3.84.74.16,1.19-.13,1.38-.37.23-1.11.41-1.58-.25-5.54,3.69-12.7,4.01-12.85,4.33-.12.25-.16.56-.11.83l-18.78.03c-1,0-1.37-.28-1.97-.78,7.92-1.1,15.73-3.09,23.29-7.15l8.3-4.47c6.37-3.43,11.62-7.93,17.17-12.92,9.7-8.74,17.65-19.08,22.55-30.8,1.19-2.85,2.29-5.9,2.89-9.26-.02-.56.51-.81,1.15-.53Z"/><path class="cls-81" d="M397.69,318.85c-2.1.4-2.89,3.19-4.76,4.09-4.65.97-5.46,5.51-7.42,7.18s-4.14,3.27-5.22,5.44c-2.3,4.63-6-.82-8.09,2.65l-2.68,4.44-1.36,4-25.28.13c-.05-.27,0-.58.11-.83.15-.32,7.31-.63,12.85-4.33.47.67,1.21.48,1.58.25.3-.18.98-.64.13-1.38.64-.74,1.39-1.86,2.64-2.3,1.74-.62,1.26-2.51.83-3.95.35.36.51,1.62,1.43,1.39.49-.12,1.47-.71,1.76-1.45l.65-1.63c.19-.48.82-.37,1.13-.49,1.61.84,3.16.21,3.86-1.64,2.28-.23,4.01.74,6.41,1.29l6.87-7.39c.4-.44,1.83-.23,2.12-.72,1.05-1.86-1.29-4.65.22-6.85,1.66.15,1.8-2.42,2.74-3.15,2.21-1.71,4.68-3.19,6.12-5.31.96-.18,2.53-.04,3.34-.81v11.35Z"/><path class="cls-73" d="M368.16,346.65l1.36-4,2.68-4.44c2.09-3.47,5.79,1.98,8.09-2.65,1.08-2.18,3.31-3.82,5.22-5.44s2.77-6.21,7.42-7.18c1.86-.9,2.65-3.69,4.76-4.09,0,5.11.09,10.25-2.39,15.13-3.45,6.79-9.74,11.51-17.4,12.49l-9.73.18Z"/><path class="cls-43" d="M393.84,48.55c2.69,4.32,3.85,9.46,3.83,14.53-.4-.11-.73-.08-1.3.78-.24-6.04-2.18-12.48-7.5-16.66-7.3-5.75-14.57-6.03-23.51-5.07-.02-1.09-.37-2.16.18-3.64l11.36.11c6.99.07,13.41,4.29,16.94,9.95Z"/><path class="cls-108" d="M346.24,39.77c.16.04,1.12,0,1.13-.22l.31-7.27c1,.61,4.8.3,4.85-1.25l.52-17.89c.94-.11,2.22-.35,2.77-1.3.54.77,1.13.44,1.38-.03.18-.36.11-.73-.39-1.07,1.01-.43,1.28-.97,1.62-1.62.99,1.39,1.1,2.79,1.1,4.75l-.07,37.99c0,3.78-2.43,6.63-5.81,7.15-3.03.47-6.9-1.61-7-5.06l-.4-14.17Z"/><path class="cls-51" d="M303.33,18.09l.14,33.75c.02,4.59-3.37,7.67-7.72,7.35-3.87-.29-5.82-4.18-5.79-8.21,4.06-.91,6.91-2.05,6.9-5.68l-.11-25.62c1.89.12,3.64-2.01,6.58-1.6Z"/><path class="cls-67" d="M297.58,6.06c-.2-.02-.34,1.51-.43,1.24-.11-.33-1.33-.27-.65.53l.24,11.86.11,25.62c-1.67-.18-3.18.16-4.99-.61,1.08-2.93.11-6.73-.17-6.83-.38-.13-1.14,0-1.64-.19l-.02-24.53c0-4.17,3.19-7.59,7.54-7.1Z"/><path class="cls-61" d="M358.42,9.11c-.33.66-.6,1.2-1.62,1.62.5.34.58.71.39,1.07-.24.47-.83.81-1.38.03-.55.95-1.83,1.19-2.77,1.3l-.52,17.89c-.04,1.54-3.85,1.86-4.85,1.25l-.31,7.27c0,.22-.97.26-1.13.22l.1-3.29.02-23.31c0-3.32,1.6-5.98,4.66-6.87,2.82-.82,5.59.27,7.4,2.81Z"/><path class="cls-54" d="M339.85,65.2c5.07,5.3,12.54,7.24,19.4,4.3,6.34-2.71,10.26-9.48,9.45-17.03-.13-1.21-.57-2.34.53-3.09,3.02,6.05,2.09,14.37-2.9,19.06-6.89,6.48-15.17,6.93-22.71,1.63-1.63-1.14-2.85-3.14-3.78-4.88Z"/><path class="cls-65" d="M285.14,66.49c4.47,3.64,10.76,5.51,16.41,3.58,7.87-2.69,12.56-10.67,11.08-18.84-.2-.95-.04-1.36.76-1.38,2.89,6.92,1.64,15.29-4.53,19.96-7.97,6.04-19.01,4.91-23.71-3.32Z"/><path class="cls-5" d="M340.53,41.6l-30.94.56c.13-.82-.72-2.3-.05-3.66l30.5.13c.83.53.37,2.27.49,2.97Z"/><path class="cls-12" d="M284.26,41.75l-30.9.22.08-3.37,30.54-.04c.44,1.26.3,2.25.27,3.19Z"/><path class="cls-74" d="M303.33,18.09c-2.94-.41-4.69,1.72-6.58,1.6l-.24-11.86c-.69-.81.53-.86.65-.53.09.27.24-1.26.43-1.24,2.66.3,5.51,2.52,5.58,5.12l.17,6.91Z"/><path class="cls-16" d="M296.86,45.31c.02,3.63-2.84,4.76-6.9,5.68l.11-13.3c.49.18,1.25.06,1.64.19.28.09,1.24,3.9.17,6.83,1.8.77,3.32.43,4.99.61Z"/><path class="cls-28" d="M241.12,323.26l.21-3.78,1.38-.03c-.49.66-1.1,1.68-.47,2.72l95.83.03-.05-7.88-.53-5.78-1.86,2.43-.1-27.29c.52-.17,1.11-1.05,2.39.01.29-.7.58-2.56,1.8-2.6l16.43-.47c-.63-.93-1.83-.46-2.29-.52-.56-.08-.57-1.59-.52-2.13.19,0,.56.33.82-.07-.05.37-.14.98-.01,1.22.16.33.73.48,1.31.35,1.07-.24,1.48.22,1.65,1.32l18.25.02c.67,0,1.77-1.36,1.74-1.96l-.43-10.2c-.25-5.99.57-11.75-.08-17.84-.17-1.63,1.56-3.85-.45-5.74,1.26-1.84,1.06-4.2.24-6.35.78-.37.26-1.01-.04-1.14-.35-.15.58-1.05.57-1.42l-.29-17.3.12-11.23c.01-1.11.15-1.35-.73-1.93-1.05-.69-.94-.4-1.95.17l-.24-6.96-34.43.19.14,37.51c-2.42.91-.82-1.93-1.56-6.57-2.29,1.16-.21,3.87-2.43,3.42v-15.23s-.01-19.11-.01-19.11l-16.59-.2c-.38,0-1.07.05-1.27.34-.35.49,0,1.61.5,1.9,1.15.65-.05,1.15-.05,1.45-.01,1.69.37,4.78-.1,6.48-.52.57-1.01.73-1.42.06-.29-.48-.33-.81-.29-1.61l.15-2.98-3.29.25c.15-2.97-1.12-5.58-2.76-7.66-7.15-9.03-27.87-16.88-40.17-21.39-1.44-.53-3.34-.87-3.5-2.39,1.38-.71,2.22,1.45,3.08,1.37,1.47-.14,3.01-2.17,2.83-3.1-.33-.15-1.18-.34-1.3-.63-.17-.4.23-1.01.58-1.27l.28-5.07c.21-3.8-1.14-7.25-4.52-9.26-.41.31-.41.86-.63,1.43-.97-3.93-2.57-8.31-5.88-10.62-4.68-6.24-12.35-9.65-20.3-9.56.92-1.6.5-3.47.34-5.26,6.17,0,11.7,1.62,17.31,4.76l-.02-20.06-16.9-.15-.16-3.89h136.47s.17,110.62.17,110.62l.14,42.06-.26,16.91h-38.53s-.25,41.63-.25,41.63l-6.36-.32c-2.14.5-3.56.46-5.4.45l-27-.19c-2.33-.02-4.61-.63-6.95.08-11.39.08-22.29.57-33.13-.56-.83,1.43-2.48.77-3.32.23-2.15.82-4.97.62-7.19-.1-2.99,1.4-5.86.4-8.71.4ZM274.58,153.73h22.55s-.01-37.72-.01-37.72l-34.75-.02.07,23.31c3.81,3.34,6.29,7.33,9.1,11.24-.25,2.01,1.05,3.09,3.04,3.19ZM335.62,153.57l-.05-37.62-34.62.08.02,37.75,34.65-.21ZM374,153.72l.04-37.73-34.69.06v37.65s34.65.02,34.65.02ZM285.75,176l11.36,5.29v-23.71s-24.34.18-24.34.18c1.15,4.57.72,8.59-.16,12.96l13.14,5.27ZM335.61,195.13v-37.49s-34.62-.07-34.62-.07l.05,25.83c5.89,3.27,11.09,6.79,14.8,11.87l19.77-.14ZM374.03,195.19v-37.6s-34.65.05-34.65.05l-.03,37.62,34.68-.06Z"/><path class="cls-45" d="M241.44,112.04l.16,3.89-17.28.03.07,20.15c5.52-3.07,10.96-4.87,16.82-4.74.16,1.79.58,3.66-.34,5.26-8.5.1-16.51,4.74-21.15,11.1-5.58,7.64-6.3,16.78-3.67,25.79.37,1.28-2.48,1.92-3.22,2.05.07-1.34-.34-2.91-2.16-2.86.27-1.04-.56-1.24-.63-1.54-.86-3.69-1.09-9.28-.23-13.51l-24.11-.08v19.11c-1.27.07-2.52-.38-3.83,0l-.18-19.13-34.66.06.11,37.62,20-.05c3.56-5.18,8.78-8.6,14.25-11.15.91,1.34,1.52,2.68,2.71,4.03-9.08,5.82-16.63,10-13.63,20.65.72,2.55,2.59,4.9,4.97,6.36l.54,6.13,5.52,1.93.26,7.03-9.94-10.12c-5.69-5.96-9.28-12.68-6.44-21.11l-18.39.15.12,37.47,28.22.1c-.09.38-.39.85-.28,1.14.22.56,1.4.43,1.93.35.24.72.41,1.36.71,1.35l1.69-.03c.41,0,1.58.04,2.15-.02.44-.04.4.73.38,1.38l-34.82-.3.06,11.44c-1.27.5-2.38,1.22-3.83,1.35l-.03-12.78-11.93-.02c.29-.63.21-1.44-.79-1.91.28-.93.96-1.25,1.12-1.98l11.51-.12.1-37.44-30.82-.18c-1.56,0-3.22-.81-4.02,1.05l.13,11.28c-.16.28-.6.21-.68.02l-.04-12.59c2.08-1.04,4.26-.73,6.71-.53-.19-1.38.12-2.01.54-2.88l28.13-.05.08-37.17c.99-.41-.11-1.23-.05-1.15-.53-1.82-2.14-.82-2.56-.49-1.68.62-3.74-.32-3.24-1.64.85-.02,3.13.74,3.26-.92.72-.07,1.62.02,2.47-.45l.07-37.48-34.55.09-.04,32.01c-1.19.54-2.44.86-3.98.34l.16-36.27,136.54-.06ZM181.79,153.71v-37.74s-34.65.08-34.65.08l-.12,37.66h34.77ZM220.36,139.16l.07-23.21-34.72-.03.04,37.8h25.02c1.92-5.72,4.85-10.52,9.58-14.55Z"/><path class="cls-89" d="M108.72,148.02c-.09,1.76-.31,3.61.15,5.74l31.9.09c-.13,1.66-2.42.89-3.26.92-.5,1.32,1.56,2.26,3.24,1.64.42-.33,2.03-1.33,2.56.49-.06-.08,1.04.74.05,1.15-.95-.8-1.52-.55-2.8-.55l-31.8.11-.15,37.26c2.24.63,4.43.4,6.54.39-.42.86-.73,1.5-.54,2.88-2.45-.2-4.64-.52-6.71.53l.04,12.59c.09.19.52.26.68-.02l.12,25.35,22.97.06c-.16.73-.84,1.05-1.12,1.98,1,.47,1.07,1.28.79,1.91l-22.6.1-.06,37.24h34.41s.21-24.53.21-24.53c1.45-.12,2.55-.84,3.83-1.35v25.9s23.88.03,23.88.03l10.35-23.5.54-13.57c.03-.65.06-1.42-.38-1.38-.57.05-1.74,0-2.15.02l-1.69.03c-.29,0-.47-.63-.71-1.35-.53.08-1.7.21-1.93-.35-.11-.29.19-.75.28-1.14l6.32-.17.1-6.32-.26-7.03-5.52-1.93-.54-6.13c7.31,4.49,18.23,2.35,25.36,6.36l.59,3.45c-.81,3.24-2.47,5.92-4.05,9.25l-19.96,41.95c-.84,1.77-.98,3.29-1.24,4.8s.31,3.32,1.06,4.58c.46.78,1.83,2.5,2.86,2.52-.05.43-.47.96-.65,1.3,1.6,1.35,2.57,3.18,2.41,5.05-.31.02-.78-.38-.65-.54.15-.18.16-.69-.21-.72-1.63.35-3.04-.2-4.38-.46-3.11-2.71-6.06-5.64-5.98-10.83l-23.61-.02.09,37.57,34.6-.04.22-15.23c1.31-.32,2.35-1.53,3.81-1.44l.08,16.8,34.21-.02c.87-.48.61-2.83.61-3.72.64-.06,1.62-.3,2.43.18.02.27-.02.88.22,1.3.23.38.44.45.83.51.2.17.24,1.05.28,1.58l16.93.23-.21,3.78-136.23-.07-.16-142.38v-32.44c1.55.52,2.79.2,3.98-.34ZM190.45,236.18l5.27-11.06c-3.09-1.34-6.22-1.07-9.88-1.49l-.26,12.74c1.41.39,3.98.64,4.87-.2ZM188.58,240.73c-1-.37-1.82-.23-2.91-.22l-.02,5.58c1.35-1.52,1.57-2.95,2.93-5.36ZM143.24,319.35l.11-37.6-34.68-.09.18,37.74,34.39-.05Z"/><path class="cls-14" d="M393.45,290.68c-4.91,11.72-12.85,22.06-22.55,30.8-5.54,4.99-10.8,9.5-17.17,12.92l-8.3,4.47c.31-1.02.68-2.88-.95-3.46l3.92-7.13c1.21.94,1.85.16,2.7-.74.54-.57,1.13-.86.64-2.18,1.46.76,2.41.9,3.3.83.23-.02,6.82-5.32,7.36-9.93,3.7-1.81,3.29-5.4,6.47-4.84-.22-1.63.4-2.15,1.21-2.98.94-.97,1.51-.83,3.03-.57,1.26.21,1.91-1.93,1.78-2.75,1.93.02,3.4-1.1,4.58-2.4.91.03,2.79.35,3.05-.47l.83-2.71,2.61-3.67c4.07-1.73,5.5-4.87,7.49-5.18Z"/><path class="cls-36" d="M361.94,312.3c-1.5.57-3.9-.18-4.13.52l-.61,1.78c-1.16.67-2.33,2.32-3.29,3.4-.86.38-2.65.38-3.56,1.09-.1,2.17.32,4.92-2.12,6.8l2.55-13.68c.99-5.32,7.61-12.42,12.27-13.2l8.21-1.36c.71,3.3-.76,5.15-4.18,6.54.34,2.77-1.57,4.92-4.09,6.08-.09.88-.24,1.74-1.04,2.04Z"/><path class="cls-92" d="M385.48,316.76c-1.52,2.2.83,4.99-.22,6.85-.28.5-1.71.29-2.12.72l-6.87,7.39c-2.39-.55-4.12-1.51-6.41-1.29-.7,1.85-2.25,2.48-3.86,1.64,6.18-4.1,6.87-10.81,12.54-9.46.89.21,2.69-1.9,3.82-3.69l1.14-1.8c.33-.53,1.4-.43,1.99-.38Z"/><path class="cls-26" d="M240.88,136.64c7.95-.09,15.62,3.32,20.3,9.56l-2.37-1.65c.15,1.69-.52,2.41-2.02,3.45,2.77,3.78,4.44,7.35,5.4,11.28,2.24,9.14-5.83,18,4.47,19.8-.15-.99.36-1.9.89-2.7.41-.61,2.02-.31,2.69-.66,12.29,4.51,33.02,12.36,40.17,21.39-3.06,1.99-3.06,5.02-2.91,8.12s-2,5.86-4.57,6.33l-14.17,2.6c-2.37.44-5.16.54-7.53,1.65-4.74,2.22-6.26,7.47-4.39,11.75l3.14,7.22,8.84,18.55,4.12,8.03c2.69,5.25,8.67,18.54,8.54,19.11-.31,1.33-1.63,2.49-3.41,2.49h-33.31c-1.95-1.54-3.44-2.98-4.61-5.21-1.81.69-2.84,1.44-4.4,2.36l-12.98-24.11c.87-1.35.02-2.81-.13-4.87-2.63-1.15-6.15.19-7.81,3.19l-13.99,25.24c-.66,1.19-1.92,3.11-3.54,3.25-10.49.89-20.74.25-31.3.17-2.13-.02-3.03.02-4.95.99-.98.49-3.09-.21-3.81,1.47-.75-1.26-1.33-3.04-1.06-4.58l5.08-.06,5.55-11.92,7.95-16.77,10.05-20.73c1.23-2.54,2.85-6.31,1.37-8.46-1.67-1.22-4.41.61-4.74,1.95l-.59-3.45c-.07-.5.13-1.47.46-1.87,1.19-1.42.19-4.28-2.21-4.65l-15.08-2.29c-2.92-.44-5.4-1.71-7.39-4.03-1.16.34-2.9,1.52-3.89.6l-1.08-1.01c-.19-.17-.77.46-1.14.54-3.01-10.65,4.55-14.83,13.63-20.65,9.18-5.12,18.95-8.68,28.72-12.49.74-.13,3.59-.77,3.22-2.05-2.63-9.01-1.91-18.14,3.67-25.79,4.65-6.36,12.66-11,21.15-11.1Z"/><path class="cls-78" d="M318.03,209.08c-2.14,7.78-8.6,12.85-16.96,13.87l-.24,7.07.1,3.36.15,3.27,34.19-.07c.51-1,.28-2.04.28-3.12,2.22.46.14-2.26,2.43-3.42.74,4.64-.85,7.48,1.56,6.57l34.44.02.09-30.76c1.01-.57.9-.86,1.95-.17.88.58.74.82.73,1.93l-.12,11.23.29,17.3c0,.37-.92,1.27-.57,1.42.3.13.82.77.04,1.14.82,2.15,1.02,4.51-.24,6.35,2.01,1.89.27,4.11.45,5.74.65,6.09-.18,11.85.08,17.84l.43,10.2c.03.61-1.06,1.97-1.74,1.96l-18.25-.02c-.17-1.1-.59-1.56-1.65-1.32-.58.13-1.15-.02-1.31-.35-.12-.25-.04-.85.01-1.22l19.88-.08.02-37.24-34.7.02-.03,37.25,14,.13c-.06.54-.04,2.04.52,2.13.45.07,1.66-.41,2.29.52l-16.43.47c-1.22.03-1.51,1.9-1.8,2.6-1.27-1.07-1.86-.19-2.39-.01l-.13-1.88-15.68-.13-3.36-.03c-1.31-.01-2.59-.06-3.99.18-.75,6.15-4.99,11.38-11.34,11.97l-.26,11.54c.11.25.3.76.29,1.11l-.06,12.95,34.48.04.16-8.45,1.86-2.43.53,5.78.05,7.88-95.83-.03c-.63-1.04-.02-2.06.47-2.72h15.62s.18-26.45.18-26.45l-3.12-3.62c-1.83-2.12-3.32-4.57-4.54-7.59l-6.27-.02-3.78-.15,1.2-3.73,6.05-.28-6.34-12.98c-1.14-2.34-.51-5.73-.45-8.38l1.49-.23,12.98,24.11c2.87,5.32,6.38,8.33,13.02,8.32l30.61-.02c2.78,0,5.14-1.16,6.41-3.06,1.52-2.27,1.5-5.23.2-7.98l-24.39-51.38c-.5-1.05.03-3.2.56-4.2.65-1.23,2.24-1.73,3.84-1.96l9.3-1.36c9.18-1.35,17.36-3.38,17.88-13.71l3.29-.25-.15,2.98c-.04.8,0,1.13.29,1.61.41.67.9.51,1.42-.06ZM292.48,236.13c.82,1.12,4.01.61,4.66.12l-.11-12.61-10.09,1.48c1.87,3.99,3,7.51,5.54,11.01ZM297.1,241.62c.09-1.25-1.85-1.49-2.16-.86.15,1.82.64,3.33,1.85,4.96.58-1.47.2-2.68.31-4.1ZM335.62,277.88v-37.32s-34.62.02-34.62.02l-.02,13.92c3.98,7.72,7.6,15.15,10.86,23.34l23.78.05ZM262.31,295.22l.11,2.51-.08,21.61,34.57.09.18-8.37v-5.44s.02-11.9.02-11.9l-31.74.27-2.83-.97-.22,2.19Z"/><polygon class="cls-106" points="374 153.72 339.36 153.7 339.35 116.05 374.04 115.99 374 153.72"/><polygon class="cls-104" points="335.62 153.57 300.97 153.78 300.95 116.03 335.57 115.95 335.62 153.57"/><polygon class="cls-96" points="374.03 195.19 339.35 195.25 339.38 157.63 374.03 157.58 374.03 195.19"/><polygon class="cls-55" points="374.07 205.86 373.98 236.61 339.54 236.59 339.41 199.08 373.83 198.9 374.07 205.86"/><path class="cls-103" d="M354.17,277.89c-.26.4-.63.08-.82.07l-14-.13.03-37.25,34.7-.02-.02,37.24-19.88.08Z"/><path class="cls-64" d="M274.58,153.73c-1.99-.1-3.29-1.18-3.04-3.19-2.81-3.91-5.29-7.9-9.1-11.24l-.07-23.31,34.75.02v37.72s-22.53,0-22.53,0Z"/><path class="cls-91" d="M335.61,195.13l-19.77.14c-3.72-5.08-8.91-8.6-14.8-11.87l-.05-25.83,34.61.07v37.49Z"/><path class="cls-3" d="M335.54,283.67l.1,27.29-.16,8.45-34.48-.04.06-12.95c.96,1.29,2.54-.1,3.73-.44,6.55,4.19,9.68-2.7,14.75-2.53,1.09-.34,1.86-1.8,2.63-2.73,2.68-1.43,4.63-3.97,3.19-7.34l-3.77-8.83-1.84-1.06c-.46-.26-.44-1.11-.03-1.84l15.68.13.13,1.88Z"/><path class="cls-94" d="M241.6,115.94l16.9.15.02,20.06c-5.62-3.14-11.15-4.75-17.31-4.76-5.86-.13-11.3,1.67-16.82,4.74l-.07-20.15,17.28-.03Z"/><path class="cls-83" d="M285.75,176l-13.14-5.27c.89-4.37,1.31-8.39.16-12.96l24.33-.18v23.71s-11.35-5.29-11.35-5.29Z"/><path class="cls-31" d="M255.4,289.38l3.12,3.62-.18,26.45h-15.62s-1.38.03-1.38.03l-16.93-.23c-.04-.53-.08-1.41-.28-1.58.46-.54.09-1.2.1-1.62,4.54-.83,6.61-3.63,12.08-4.26l6.22-.73c1.16-.14,3.42-2.15,3.86-3.14l2.88-6.48c.38-.86,1.27-.98,1.82-1.97.31-.56-.52-1.33-.56-1.81,1.7-4.56,2.84-8.8,4.87-8.27Z"/><path class="cls-25" d="M329.57,211.16l5.97,7.05v15.23c0,1.09.24,2.12-.27,3.12l-34.19.07-.15-3.27c4.76.96,4.29-2.57,6.85-3.37.9-.28,8.46,2.82,10.99-2.74.37-.81.22-2.34,1.42-3.33,1.66-1.36,3.82-2.83,4.86-5.06-1.19-1.59-1.25-2.9-.72-4.98.55-.12,1.24-2.53,2.78-2.27.29.66,1.09,1.09,1.87.89.34-.09.47-.73.59-1.35Z"/><path class="cls-34" d="M329.57,211.16c-.12.62-.24,1.26-.59,1.35-.78.2-1.57-.23-1.87-.89-1.54-.26-2.23,2.15-2.78,2.27-.54,2.08-.48,3.39.72,4.98-1.04,2.23-3.2,3.69-4.86,5.06-1.21.99-1.05,2.52-1.42,3.33-2.53,5.55-10.09,2.45-10.99,2.74-2.56.81-2.09,4.34-6.85,3.37l-.1-3.36c2.9.6,4.71-4.5,10.85-6.05,1-1.63,2.3-3.45,4.6-3.54l3.36-5.13c2.76-4.21-.8-6.73.92-10.82.41-.97-.35-1.44-.82-1.84-.68-.58-1.05-.35-1.62-.05,0-.31,1.2-.8.05-1.45-.51-.29-.84-1.41-.5-1.9.2-.29.89-.35,1.27-.34,2.99,4.29,6.73,7.62,10.62,12.26Z"/><path class="cls-101" d="M313.18,204.78c-.53,10.33-8.7,12.36-17.88,13.71.25-.45.32-1.12.08-1.41-1.58-1.94-7.91,1.48-6.62-2.91l14.17-2.6c2.57-.47,4.72-3.32,4.57-6.33s-.15-6.13,2.91-8.12c1.64,2.07,2.92,4.69,2.76,7.66Z"/><path class="cls-95" d="M335.55,218.21l-5.97-7.05c-3.89-4.64-7.64-7.98-10.62-12.26l16.59.2v19.11Z"/><path class="cls-68" d="M300.83,230.02l.24-7.07c8.36-1.02,14.82-6.09,16.96-13.87.47-1.7.08-4.79.1-6.48.57-.3.94-.53,1.62.05.46.4,1.23.86.82,1.84-1.72,4.09,1.84,6.61-.92,10.82l-3.36,5.13c-2.31.08-3.6,1.91-4.6,3.54-6.15,1.55-7.95,6.66-10.85,6.05Z"/><path class="cls-63" d="M261.18,146.2c3.32,2.31,4.92,6.69,5.88,10.62,1.17,4.78,1.5,9.99-.12,14.58l-1.58.68-.19-6.03c-.06-1.87-1.03-3.35-.68-5.41.1-.61-.49-1.74-.86-2.01s-1.19.35-1.45.66c-.96-3.93-2.63-7.51-5.4-11.28,1.5-1.04,2.17-1.77,2.02-3.45l2.37,1.65Z"/><path class="cls-18" d="M266.75,173.35c-.07-.63,0-1.38.2-1.94,1.62-4.59,1.29-9.8.12-14.58.21-.57.21-1.13.63-1.43,3.38,2.01,4.73,5.46,4.52,9.26l-.28,5.07c-.35.26-.75.87-.58,1.27.12.28.97.47,1.3.63.18.93-1.36,2.96-2.83,3.1-.86.08-1.7-2.08-3.08-1.37Z"/><path class="cls-39" d="M266.94,171.4c-.2.57-.26,1.32-.2,1.94.16,1.52,2.06,1.86,3.5,2.39-.68.35-2.28.05-2.69.66-.54.8-1.04,1.71-.89,2.7-10.3-1.8-2.23-10.66-4.47-19.8.26-.31,1.08-.92,1.45-.66s.96,1.4.86,2.01c-.35,2.06.62,3.54.68,5.41l.19,6.03,1.58-.68Z"/><polygon class="cls-76" points="181.79 153.71 147.03 153.71 147.15 116.05 181.8 115.97 181.79 153.71"/><path class="cls-41" d="M143.35,158.04l-.08,37.17-28.13.05c-2.11,0-4.3.24-6.54-.39l.15-37.26,31.8-.11c1.28,0,1.85-.25,2.8.55Z"/><path class="cls-85" d="M140.77,153.85l-31.9-.09c-.46-2.12-.24-3.98-.15-5.74l.04-32.01,34.55-.09-.07,37.48c-.85.47-1.75.38-2.47.45Z"/><path class="cls-94" d="M131.71,236.63l-22.97-.06-.12-25.35-.13-11.28c.8-1.87,2.46-1.06,4.02-1.05l30.82.18-.1,37.44-11.51.12Z"/><polygon class="cls-1" points="131.38 240.52 143.31 240.54 143.34 253.33 143.13 277.87 108.72 277.86 108.78 240.62 131.38 240.52"/><path class="cls-100" d="M220.36,139.16c-4.73,4.03-7.66,8.83-9.58,14.56h-25.02s-.04-37.8-.04-37.8l34.72.03-.07,23.21Z"/><path class="cls-100" d="M181.89,176.7l-.48,7.34c-5.47,2.55-10.69,5.97-14.25,11.15l-20,.05-.11-37.62,34.66-.06.18,19.13Z"/><polygon class="cls-75" points="181.93 240.84 181.39 254.41 171.04 277.91 147.15 277.89 147.16 251.98 147.11 240.54 181.93 240.84"/><path class="cls-60" d="M181.78,230.17l-.1,6.32-6.32.17-28.22-.1-.12-37.47,18.39-.15c-2.84,8.43.75,15.15,6.44,21.11l9.94,10.12Z"/><path class="cls-90" d="M210.05,171.18c-8.2,2.84-16.19,5.91-24.04,10.13-.48-1.74-.3-3.16-.3-4.61v-19.11s24.11.08,24.11.08c-.87,4.23-.64,9.82.23,13.51Z"/><path class="cls-40" d="M210.05,171.18c.06.29.89.5.63,1.54,1.81-.04,2.23,1.52,2.16,2.86-9.77,3.82-19.53,7.37-28.72,12.49-1.2-1.35-1.81-2.69-2.71-4.03l.48-7.34c1.31-.38,2.56.06,3.83,0,0,1.45-.19,2.87.3,4.61,7.86-4.22,15.84-7.29,24.04-10.13Z"/><path class="cls-79" d="M200.82,221.44c-7.13-4-18.05-1.86-25.36-6.36-2.38-1.47-4.25-3.81-4.97-6.36.37-.07.95-.71,1.14-.54l1.08,1.01c.99.92,2.73-.26,3.89-.6,1.98,2.32,4.46,3.59,7.39,4.03l15.08,2.29c2.4.36,3.4,3.23,2.21,4.65-.33.4-.53,1.37-.46,1.87Z"/><polygon class="cls-30" points="143.24 319.35 108.85 319.4 108.66 281.66 143.35 281.75 143.24 319.35"/><path class="cls-52" d="M176.61,292.61c.98,2.06,3.09,3.58,4.99,4.78l.33,6.67-.22,15.23-34.6.04-.09-37.57,23.61.02c-.08,5.19,2.86,8.12,5.98,10.83Z"/><path class="cls-38" d="M241.27,256.26c-.05,2.65-.69,6.04.45,8.38-2.82,4.03-4.79,8.27-7.09,12.83l7.38.43-1.2,3.73-8.71.33c-1.8,4.18-4.46,7.24-7.76,9.99l.04,15.23-.15,8.87c0,.42.37,1.08-.1,1.62-.39-.05-.6-.12-.83-.51-.25-.41-.2-1.03-.22-1.3-.81-.48-1.79-.24-2.43-.18v-9.47c.02-2.36.26-7.11-.59-9.48.02-.62,1.41-2.18.11-3.1l-16.19.3-18.1-.04c-.57,3.07-.17,5.76.01,8.3,0,.11-.02.26-.15.44-1.46-.09-2.5,1.12-3.81,1.44l-.33-6.67.25-3.05c.15-1.88-.81-3.7-2.41-5.05.18-.34.59-.87.65-1.3l35.23.54c4.88.08,8.4-2.35,10.64-6.54l12.5-23.41c.73-1.37,1.37-2.04,2.82-2.31Z"/><path class="cls-98" d="M220.66,306.21v9.47c-.01.9.25,3.24-.63,3.72l-34.21.02-.08-16.8c.13-.18.16-.33.15-.44,1.04.36,1.87,1.75,2.54,2.71,3.88,5.58,8.83-.51,12.98,2.02,3.19,1.62,6.53.02,9.57-.43,3.26,1.5,6.81-.12,9.7-.27Z"/><path class="cls-50" d="M242.76,256.03l-1.49.23c-1.46.27-2.09.94-2.82,2.31l-12.5,23.41c-2.24,4.19-5.76,6.62-10.64,6.54l-35.23-.54c-1.03-.02-2.39-1.74-2.86-2.52.73-1.68,2.84-.98,3.81-1.47,1.92-.97,2.82-1,4.95-.99,10.56.08,20.81.72,31.3-.17,1.62-.14,2.87-2.06,3.54-3.25l13.99-25.24c1.66-3,5.19-4.34,7.81-3.19.15,2.06,1,3.52.13,4.87Z"/><path class="cls-102" d="M176.16,280.88c.26-1.51.4-3.02,1.24-4.8l19.96-41.95c1.58-3.33,3.24-6,4.05-9.25.34-1.35,3.07-3.18,4.74-1.95,1.48,2.15-.14,5.92-1.37,8.46l-10.05,20.73-7.95,16.77-5.55,11.92-5.08.06Z"/><path class="cls-97" d="M190.45,236.18c-.89.84-3.46.59-4.87.2l.26-12.74c3.66.41,6.79.15,9.88,1.49l-5.27,11.06Z"/><path class="cls-107" d="M181.85,294.33l-.25,3.05c-1.9-1.19-4.01-2.72-4.99-4.78,1.34.26,2.75.8,4.38.46.37.03.36.54.21.72-.13.16.33.56.65.54Z"/><path class="cls-62" d="M188.58,240.73c-1.36,2.41-1.59,3.84-2.93,5.36l.02-5.58c1.1,0,1.92-.15,2.91.22Z"/><path class="cls-105" d="M281.6,226.02l24.39,51.38c1.3,2.75,1.32,5.7-.2,7.98-1.27,1.9-3.63,3.06-6.41,3.06l-30.61.02c-6.65,0-10.16-3-13.02-8.32,1.56-.92,2.59-1.67,4.4-2.36,1.17,2.23,2.66,3.67,4.61,5.21h33.31c1.79,0,3.11-1.16,3.41-2.49.13-.57-5.85-13.86-8.54-19.11l-4.12-8.03-8.84-18.55-3.14-7.22c.63-.12.89-.66.62-1.46l4.14-.1Z"/><path class="cls-99" d="M288.76,214.18c-1.29,4.38,5.03.97,6.62,2.91.24.29.17.96-.08,1.41l-9.3,1.36c-1.6.23-3.18.73-3.84,1.96-.53,1-1.06,3.15-.56,4.2l-4.14.1c.28.8.02,1.35-.62,1.46-1.86-4.28-.34-9.53,4.39-11.75,2.37-1.11,5.16-1.22,7.53-1.65Z"/><path class="cls-59" d="M335.62,277.88l-23.78-.05c-3.26-8.18-6.88-15.61-10.86-23.34l.02-13.92,34.63-.02v37.32Z"/><path class="cls-84" d="M255.4,289.38c-2.03-.53-3.17,3.71-4.87,8.27.04.48.87,1.25.56,1.81-.55,1-1.44,1.12-1.82,1.97l-2.88,6.48c-.44.99-2.7,3.01-3.86,3.14l-6.22.73c-5.47.64-7.54,3.44-12.08,4.26l.15-8.87c1.76-.07,1.82-2.29,3.08-2.77l4.98-1.9,6.27-6.33c.39-.39-.3-2.51.21-2.72.38-.16,1.42-.04,1.65-.85l1.27-4.52,2.04-4.13c.44-.89,1.12-1.29.71-2.18l6.27.02c1.22,3.02,2.71,5.47,4.54,7.59Z"/><path class="cls-33" d="M269.2,304.25c3.15,3.09,5.99,6.89,10.91,8.35,1.79-.99,3.77-.99,5.08.96,2.7-4.31,8.17-1.18,11.9-2.49l-.18,8.37-34.57-.09.08-21.61,6.78,6.52Z"/><path class="cls-47" d="M297.08,305.63c-.96-.14-2.01-.02-3.02.85l-6.29-.11-5.69.67c-1.32.16-3.03-.68-4.77-1.15-.54,1.4-1.72.72-1.25-.3.06-.7.02-1.29-.13-1.71s-1.1-.47-1.83-.39l-4.91.77-6.78-6.52-.11-2.51,5.12,5.04c.73.73,2.11,1.7,2.93,1.65,1.32-.08,2.16-.86,2.97-1.58,2.71-2.39,8.2-.81,8.05-4.11-6.28,1.51-10.73-.52-15.3-.22-.74.05-1.02-1.33-.71-2l31.74-.27-.03,11.9Z"/><path class="cls-93" d="M240.81,281.62l3.78.15c.42.89-.27,1.29-.71,2.18l-2.04,4.13-1.27,4.52c-.23.81-1.27.69-1.65.85-.5.21.18,2.33-.21,2.72l-6.27,6.33-4.98,1.9c-1.26.48-1.32,2.7-3.08,2.77l-.04-15.23c3.3-2.75,5.96-5.81,7.76-9.99l8.71-.33Z"/><path class="cls-66" d="M319.73,281.66c-.41.73-.43,1.57.03,1.84l1.84,1.06,3.77,8.83c1.44,3.37-.51,5.9-3.19,7.34-.77.94-1.54,2.4-2.63,2.73-5.07-.17-8.2,6.72-14.75,2.53-1.19.34-2.76,1.72-3.73.44,0-.34-.19-.85-.29-1.11.54.17.97.21,1.36-.15.2-.18.48-.54.54-1.02.61-4.6,7.16-.77,9.61-7.69.94.22,2.43.27,3.18-.97l2.12-3.51c.99-1.64.6-4.85.32-6.84-1.05-.74-2.37-2.31-1.55-3.52l3.36.03Z"/><path class="cls-80" d="M316.37,281.63c-.82,1.21.49,2.78,1.55,3.52.28,1.99.67,5.2-.32,6.84l-2.12,3.51c-.75,1.23-2.24,1.19-3.18.97-2.45,6.92-9,3.08-9.61,7.69-.06.48-.35.83-.54,1.02-.39.36-.82.32-1.36.15l.26-11.54c6.35-.58,10.59-5.81,11.34-11.97,1.4-.24,2.68-.19,3.99-.18Z"/><path class="cls-48" d="M297.08,305.63v5.44c-3.73,1.31-9.19-1.82-11.89,2.49-1.31-1.94-3.29-1.95-5.08-.96-4.92-1.45-7.76-5.26-10.91-8.35l4.91-.77c.72-.08,1.66-.05,1.83.39s.2,1.01.13,1.71c-.47,1.01.71,1.7,1.25.3,1.74.47,3.44,1.31,4.77,1.15l5.69-.67,6.29.11c1.02-.87,2.06-.99,3.02-.85Z"/><path class="cls-24" d="M292.48,236.13c-2.54-3.5-3.67-7.02-5.54-11.01l10.09-1.48.11,12.61c-.64.49-3.84,1-4.66-.12Z"/><path class="cls-49" d="M242.01,277.9l-7.38-.43c2.3-4.56,4.27-8.8,7.09-12.83l6.34,12.98-6.05.28Z"/><path class="cls-27" d="M265.37,294c-.31.68-.03,2.05.71,2,4.57-.3,9.02,1.72,15.3.22.16,3.3-5.34,1.72-8.05,4.11-.81.72-1.65,1.5-2.97,1.58-.82.05-2.2-.93-2.93-1.65l-5.12-5.04.22-2.19,2.83.97Z"/><path class="cls-69" d="M297.1,241.62c-.1,1.42.27,2.63-.31,4.1-1.21-1.63-1.7-3.14-1.85-4.96.31-.63,2.25-.39,2.16.86Z"/><path class="cls-57" d="M220.66,306.21c-2.88.15-6.43,1.77-9.7.27-3.04.45-6.37,2.05-9.57.43-4.14-2.52-9.1,3.56-12.98-2.02-.67-.96-1.5-2.35-2.54-2.71-.19-2.54-.58-5.23-.01-8.3l18.1.04,16.19-.3c1.3.92-.09,2.48-.11,3.1.85,2.38.61,7.12.61,9.48Z"/><text class="cls-29" transform="translate(0 451.4)"><tspan class="cls-20" x="0" y="0">M</tspan><tspan class="cls-22" x="71.88" y="0">ep</tspan><tspan class="cls-21" x="165.09" y="0">p</tspan><tspan class="cls-23" x="214.96" y="0">l</tspan><tspan class="cls-19" x="241.5" y="0">e</tspan><tspan class="cls-8" x="278.55" y="0">T</tspan><tspan class="cls-7" x="332.87" y="0">i</tspan><tspan class="cls-9" x="360.33" y="0">m</tspan><tspan class="cls-6" x="439.04" y="0">e</tspan></text></g></svg>